<svg xmlns="http://www.w3.org/2000/svg" width="187" height="45" viewBox="0 0 187 45"><g transform="translate(-381 -2822)"><path d="M341.3,201.282l.5-8.71a1.034,1.034,0,0,1,1.761-.671l5.649,5.649a1.033,1.033,0,0,1-1.461,1.461l-4.019-4.019-.367,6.408a.555.555,0,0,0,.616.586c3.146-.358,8.787-1.222,11.4-1.681l19.889-19.889a.642.642,0,0,0,0-.906l-9.385-9.385a.641.641,0,0,0-.906,0l-16.766,16.765a.641.641,0,0,0,0,.905l6.32,6.32a.641.641,0,0,0,.905,0l11.755-11.755a1.688,1.688,0,0,0,0-2.384l-1.912-1.912a1.687,1.687,0,0,0-2.384,0l-7.469,7.468a1.033,1.033,0,0,1-1.461-1.461l7.468-7.468a3.756,3.756,0,0,1,5.306,0l1.912,1.912a3.756,3.756,0,0,1,0,5.306L356.9,195.579a2.709,2.709,0,0,1-3.827,0l-6.32-6.32a2.709,2.709,0,0,1,0-3.827l16.766-16.766a2.709,2.709,0,0,1,3.827,0l9.385,9.385a2.709,2.709,0,0,1,0,3.827L356.608,202a1.031,1.031,0,0,1-.547.286c-2.439.44-8.407,1.366-11.846,1.757A2.621,2.621,0,0,1,341.3,201.282Z" transform="translate(39.702 2659.125)" fill="#fff"/><text transform="translate(430 2857)" fill="#fff" font-size="35" font-family="AirbnbCerealApp-Black, Airbnb Cereal App" font-weight="800" letter-spacing="-0.02em"><tspan x="0" y="0">Scribble</tspan></text></g></svg>